<svg xmlns="http://www.w3.org/2000/svg" width="429" height="100" version="1.1">
    <rect x="0" y="0" width="429" height="100" fill="#FFFFFF"/>
    <g transform="translate(30, 0)">
        <rect x="0" y="0" width="6" height="100" fill="#000000" /><rect x="9" y="0" width="3" height="100" fill="#000000" /><rect x="18" y="0" width="3" height="100" fill="#000000" /><rect x="33" y="0" width="3" height="100" fill="#000000" /><rect x="42" y="0" width="3" height="100" fill="#000000" /><rect x="48" y="0" width="6" height="100" fill="#000000" /><rect x="66" y="0" width="6" height="100" fill="#000000" /><rect x="78" y="0" width="9" height="100" fill="#000000" /><rect x="93" y="0" width="3" height="100" fill="#000000" /><rect x="99" y="0" width="3" height="100" fill="#000000" /><rect x="108" y="0" width="9" height="100" fill="#000000" /><rect x="120" y="0" width="6" height="100" fill="#000000" /><rect x="132" y="0" width="3" height="100" fill="#000000" /><rect x="138" y="0" width="3" height="100" fill="#000000" /><rect x="150" y="0" width="6" height="100" fill="#000000" /><rect x="165" y="0" width="3" height="100" fill="#000000" /><rect x="174" y="0" width="9" height="100" fill="#000000" /><rect x="186" y="0" width="6" height="100" fill="#000000" /><rect x="198" y="0" width="3" height="100" fill="#000000" /><rect x="207" y="0" width="9" height="100" fill="#000000" /><rect x="219" y="0" width="6" height="100" fill="#000000" /><rect x="231" y="0" width="3" height="100" fill="#000000" /><rect x="240" y="0" width="9" height="100" fill="#000000" /><rect x="252" y="0" width="6" height="100" fill="#000000" /><rect x="264" y="0" width="3" height="100" fill="#000000" /><rect x="273" y="0" width="9" height="100" fill="#000000" /><rect x="285" y="0" width="6" height="100" fill="#000000" /><rect x="297" y="0" width="3" height="100" fill="#000000" /><rect x="303" y="0" width="3" height="100" fill="#000000" /><rect x="312" y="0" width="12" height="100" fill="#000000" /><rect x="330" y="0" width="6" height="100" fill="#000000" /><rect x="345" y="0" width="9" height="100" fill="#000000" /><rect x="357" y="0" width="3" height="100" fill="#000000" /><rect x="363" y="0" width="6" height="100" fill="#000000" />
    </g>
</svg>